# xmcd
#
# Track frame offsets: 
#        182
#        17642
#        32980
#        48150
#        69465
#        85750
#        109322
#        122680
#        144055
#        160675
#        178540
#        202915
#        216535
#        239145
#        258815
#        276070
#
# Disc length: 3842 seconds
#
# Revision: 11
# Processed by: cddbd v1.5.2PL0 Copyright (c) Steve Scherf et al.
# Submitted via: ExactAudioCopy v1.1
#
DISCID=dc0f0010
DTITLE=Various Artist - Comin' Home To The Blues [CD 1)
DYEAR=1991
DGENRE=Blues
TTITLE0=Robert Cray - She's Into Something
TTITLE1=Roy Buchanan and  Delbert McClinton - You Can't Judge A Book
TTITLE2=Katie Webster - Two Fisted Mamma
TTITLE3=Charlie Musselwhite - The Blues Overtook Me
TTITLE4=Lightnin' Hopkins - Don't You Call That Boogie
TTITLE5=Rufus Thomas - That Woman Is Poison
TTITLE6=Memphis Slim - Everyday I Have The Blues
TTITLE7=Sonny Terry - Sonny's Whoopin' The Doop
TTITLE8=Willie Dixon - I Think I Got The Blues
TTITLE9=Clarence Gatemouth Brown - What Am I Living For
TTITLE10=Johnny Winter - Don't Take Advantage Of Me
TTITLE11=Snooks Eaglin - Who's Lovin' You Tonite
TTITLE12=Albert Collins - The Moon Is Full
TTITLE13=Koko Taylor - Jump For Joy
TTITLE14=Professor Longhair - Whole Lotta Lovin'
TTITLE15=Johnny Otis - Drinkin' Wine Spo-Dee-O-Dee
EXTD=YEAR: 1991
EXTT0=
EXTT1=
EXTT2=
EXTT3=
EXTT4=
EXTT5=
EXTT6=
EXTT7=
EXTT8=
EXTT9=
EXTT10=
EXTT11=
EXTT12=
EXTT13=
EXTT14=
EXTT15=
PLAYORDER=
